PathFileType	4	(X/Y/Z)	RBDS023\RBDS023runT35.trc
DataRate	CameraRate	NumFrames	NumMarkers	Units	OrigDataRate	OrigDataStartFrame	OrigNumFrames
150.000000	150.000000	4	33	mm	150.000000	1125	4500
Frame#	Time	L.ASIS			L.Heel.Bottom			L.Heel.Lateral			L.Heel.Top			L.Iliac.Crest			L.MT1			L.MT5			L.PSIS			L.Shank.Bottom.Lateral			L.Shank.Bottom.Medial			L.Shank.Top.Lateral			L.Shank.Top.Medial			L.Thigh.Bottom.Lateral			L.Thigh.Bottom.Medial			L.Thigh.Top.Lateral			L.Thigh.Top.Medial			R.ASIS			R.ASY			R.Heel.Bottom			R.Heel.Lateral			R.Heel.Top			R.Iliac.Crest			R.MT1			R.MT5			R.PSIS			R.Shank.Bottom.Lateral			R.Shank.Bottom.Medial			R.Shank.Top.Lateral			R.Shank.Top.Medial			R.Thigh.Bottom.Lateral			R.Thigh.Bottom.Medial			R.Thigh.Top.Lateral			R.Thigh.Top.Medial			
		X1	Y1	Z1	X2	Y2	Z2	X3	Y3	Z3	X4	Y4	Z4	X5	Y5	Z5	X6	Y6	Z6	X7	Y7	Z7	X8	Y8	Z8	X9	Y9	Z9	X10	Y10	Z10	X11	Y11	Z11	X12	Y12	Z12	X13	Y13	Z13	X14	Y14	Z14	X15	Y15	Z15	X16	Y16	Z16	X17	Y17	Z17	X18	Y18	Z18	X19	Y19	Z19	X20	Y20	Z20	X21	Y21	Z21	X22	Y22	Z22	X23	Y23	Z23	X24	Y24	Z24	X25	Y25	Z25	X26	Y26	Z26	X27	Y27	Z27	X28	Y28	Z28	X29	Y29	Z29	X30	Y30	Z30	X31	Y31	Z31	X32	Y32	Z32	X33	Y33	Z33	

1126	7.500000000000001	2353.93359678384	991.2109198754504	910.7976598001728	2330.459876731839	26.58653538170536	1019.528022619858	2356.18032357904	47.5445227253347	979.786740651503	2343.372130968225	71.88679349734778	1024.177058621645	2272.992284239575	1060.433890767977	865.984265403205	2559.792685355147	37.35549649284737	1043.729335074232	2517.33763110323	32.66289799356466	930.2687995909846	2178.025245246309	1019.852623928366	976.3943166955594	2420.097078982162	146.6518330558419	951.2482779943012	2376.220385012982	151.9494838569645	976.9168604303459	2415.559046118632	222.5045377924992	923.1916395990579	2372.55904517876	233.0229413433643	952.5075370655355	2393.742847919399	652.9338409315867	854.5690091600056	2338.81181387795	625.9399020956367	889.9679694294168	2337.242950317697	747.0085547604077	843.0131953055812	2284.72699092853	721.8316636944596	877.8561662277211	2371.656509658432	973.063152761832	1120.031241805819	1791.733819406966	378.4923076409432	1099.810233620748	1791.727763321038	577.1675115414449	1066.958444442505	1803.030139921702	549.4873418416248	1113.463808854662	1833.049114372701	553.3343612122293	1067.15716297792	2322.8950361051	1058.808455732962	1170.385364846576	1733.149865716936	358.3274483798309	1057.642465065765	1743.015488384179	399.825764886556	1163.967236139446	2190.081274307599	1018.814214551908	1087.04881224921	1910.59074872006	484.78997173239	1133.078959170273	1911.558371157288	529.6536978902793	1100.025243914817	1990.682863439004	494.1162913750932	1145.315242981826	1990.52051081013	536.4949747801364	1112.102355516941	2250.764499185296	572.5543528893345	1157.940861273087	2200.154271628679	575.7502917609512	1104.59929110386	2238.043958943381	680.4785404187462	1172.742656743718	2190.925733148471	683.7230141323008	1121.907644654575	
1127	7.506666666666667	2350.75067883191	985.8355638984734	910.4832122251883	2307.874409589354	28.3175207048802	1019.834086055355	2334.041732653861	49.41797263972061	980.3906109166221	2321.889238992366	73.49223633412409	1025.128892523749	2269.900957645917	1053.216616461652	866.4917354348418	2538.025470050995	34.36636830101868	1044.978595822537	2495.092046537341	32.22998079100275	930.6421310917212	2175.116413173622	1014.749839947431	978.304861137337	2403.669473305965	146.0462290682805	952.1439710496078	2359.86187725647	153.6282410408735	977.3405874480387	2402.977567992149	221.8218659796486	923.4354755350323	2360.286247342103	234.5875518061771	952.3726889882873	2390.708539541819	648.9218804730053	853.0020643074592	2336.598518798735	621.9162273634402	889.5646159448133	2333.708554369344	742.8672475656523	841.9728291627911	2281.984530164932	717.6467852864939	877.8834212247086	2369.708618101944	966.8714339703411	1119.767779096659	1807.050908184185	379.8720962072673	1100.873968357306	1807.506710670764	578.4918076901849	1068.824064135013	1819.403759928745	550.623469182392	1115.188509820929	1848.791410273025	554.4238503143455	1068.341253359303	2320.781720193948	1051.595773002099	1171.735572877904	1747.940269542814	359.9652235934685	1059.690328268011	1759.670826834669	400.9230135734758	1165.790817944593	2187.96260090845	1013.381606869439	1088.346260210652	1926.40970154058	484.4128360079329	1134.059489390656	1928.110740334024	529.4665804873239	1101.327923264468	2006.655160271468	492.3440096507099	1146.425571553329	2007.222656345625	534.8183509251025	1113.339000133043	2262.04260755302	566.5604688253297	1159.124812286737	2210.424535140195	567.7654323987958	1106.814097164702	2245.42757578678	673.9226332703132	1174.188672563875	2197.268888141932	675.2173382530282	1124.428759329855	
1128	7.513333333333334	2347.528425274225	980.9719808870027	909.9241321853912	2285.216494787435	29.80531076384264	1020.038052596899	2311.642673527231	51.06871174746187	980.7952265221242	2299.922720690647	74.87810008861676	1025.7797444303	2266.484523328005	1046.394030024795	867.0793887657933	2515.678661316685	32.81354308222291	1045.877232071206	2472.430545443838	32.57278057781221	930.8505327854781	2172.207337337648	1010.210374890457	980.1693146429091	2386.134100024138	145.714616973992	952.722530951798	2342.520516452853	155.4989039826425	977.5010939816804	2389.151389267225	221.2650643757185	923.4449907134921	2346.884811379774	236.1787753984554	952.0687860502557	2386.793649874882	644.9557692734547	851.6374729999842	2333.407577357519	618.1645786336456	889.346637463324	2329.699488237086	738.9752951875909	841.068127442413	2278.665552683127	713.9312753338243	878.0184064561254	2367.62846725645	961.1697925477905	1119.537374320471	1823.414684943775	379.7840942196704	1101.675713051514	1822.995741003433	578.3884313928858	1070.703434216929	1835.670237289258	550.3416529700087	1116.915994756001	1864.409875037416	554.3837285572126	1069.574204514814	2317.997448466773	1045.050269369939	1172.966930682667	1763.901970811582	359.8246790063388	1061.437898472777	1777.229509022629	400.1534805515552	1167.406628036385	2185.774027351883	1008.608651034174	1089.439558394167	1942.572930563297	483.2463902754577	1134.929969649164	1944.769335444133	528.5068597052959	1102.544568979044	2022.904407516286	490.2134530465585	1147.420725272413	2023.977160373215	532.8064126167278	1114.50554608475	2273.889089362146	561.5914625679397	1160.356690748474	2221.335745899946	560.6435525766764	1109.129105386562	2253.227494765151	668.2113470254212	1175.706196205669	2204.02744645342	667.3799165877369	1127.120642529224	
1129	7.52	2344.365586049966	976.7282420578123	909.1446972583674	2262.454699998315	30.99266534053284	1020.152499007012	2288.989918145332	52.40639398348905	981.0148729761261	2277.512420794324	75.99220295384673	1026.148618427803	2262.765831689728	1040.158788883094	867.7349586851075	2492.855619609767	32.32059529495742	1046.435235894721	2449.423990984626	33.35329113851098	930.917140286313	2169.37867206875	1006.317839695904	981.9226914908259	2367.554672182456	145.4973524404635	953.0027939841253	2324.234987403765	157.3567675421333	977.4124648661868	2374.082693083336	220.6982275262702	923.2519333135339	2332.326111006732	237.6187499044883	951.6122791873109	2381.982269082367	641.0460268131105	850.5054944958579	2329.170384526871	614.699666916023	889.2794731942791	2325.244845449959	735.3636558326365	840.3319686594195	2274.754740162766	710.722061203992	878.24468122266	2365.473998226623	956.1304955760811	1119.373712555871	1840.70145156457	378.2186911185266	1102.242268278284	1838.064988242207	576.8422436863112	1072.552203124182	1851.679880799704	548.6503866862276	1118.600371390978	1879.762264895791	553.2049416546248	1070.822600066911	2314.565324670492	1039.350373391932	1174.039606362154	1780.917835382097	357.875142304437	1062.88607607211	1795.526128009796	397.5593560393433	1168.810068032219	2183.561751821128	1004.547489148233	1090.309561150568	1958.949378744283	481.3167064653215	1135.677934191631	1961.376275626645	526.8068493643426	1103.664382505909	2039.310977943567	487.779435204675	1148.274341847893	2040.634619347549	530.5330516466057	1115.590681671199	2286.241242914501	557.7790162747485	1161.578467891852	2232.884882195137	554.5333531490057	1111.433836014226	2261.411297641378	663.4630819735636	1177.226617482616	2211.234783411488	660.346442552301	1129.862793456301	
